<svg width="675.6349853515625px" height="195.6800109863281px" xmlns="http://www.w3.org/2000/svg" viewBox="-87.81749267578124 -22.840005493164057 675.6349853515625 195.6800109863281" style="background: rgba(0, 0, 0, 0);" preserveAspectRatio="xMidYMid"><defs><linearGradient id="editing-gradient-gradient" x1="0" x2="1" y1="0.5" y2="0.5" gradientUnits="objectBoundingBox"><stop offset="0" stop-color="#f0f"></stop><stop offset="1" stop-color="#0ff"></stop></linearGradient></defs><g><g transform="translate(10.300017833709717, 102.98999881744385)"><path d="M32.96-1.54L32.96-1.54L32.96-1.54Q31.88-0.62 29.61 0.08L29.61 0.08L29.61 0.08Q27.34 0.77 24.64 0.77L24.64 0.77L24.64 0.77Q21.41 0.77 19.10-0.19L19.10-0.19L19.10-0.19Q16.79-1.16 15.94-2.85L15.94-2.85L15.94-2.85Q15.09-4.62 13.86-7.43L13.86-7.43L13.86-7.43Q12.63-10.24 11.28-13.71L11.28-13.71L11.28-13.71Q9.93-17.17 8.51-21.06L8.51-21.06L8.51-21.06Q7.08-24.95 5.78-28.95L5.78-28.95L5.78-28.95Q4.47-32.96 3.31-36.81L3.31-36.81L3.31-36.81Q2.16-40.66 1.31-44.04L1.31-44.04L1.31-44.04Q2.39-45.12 4.43-46.01L4.43-46.01L4.43-46.01Q6.47-46.89 8.78-46.89L8.78-46.89L8.78-46.89Q11.63-46.89 13.44-45.70L13.44-45.70L13.44-45.70Q15.25-44.51 16.09-41.27L16.09-41.27L16.09-41.27Q18.17-33.73 20.29-26.83L20.29-26.83L20.29-26.83Q22.41-19.94 24.72-12.47L24.72-12.47L25.18-12.47L25.18-12.47Q27.26-19.71 29.45-28.26L29.45-28.26L29.45-28.26Q31.65-36.81 33.65-45.28L33.65-45.28L33.65-45.28Q35.03-45.97 36.61-46.43L36.61-46.43L36.61-46.43Q38.19-46.89 40.19-46.89L40.19-46.89L40.19-46.89Q43.04-46.89 45.05-45.62L45.05-45.62L45.05-45.62Q47.05-44.35 47.05-41.43L47.05-41.43L47.05-41.43Q47.05-39.73 46.24-36.50L46.24-36.50L46.24-36.50Q45.43-33.26 44.16-29.22L44.16-29.22L44.16-29.22Q42.89-25.18 41.31-20.79L41.31-20.79L41.31-20.79Q39.73-16.40 38.15-12.51L38.15-12.51L38.15-12.51Q36.58-8.62 35.19-5.66L35.19-5.66L35.19-5.66Q33.80-2.69 32.96-1.54ZM51.59-47.82L51.59-47.82L51.59-47.82Q51.59-50.74 53.55-52.74L53.55-52.74L53.55-52.74Q55.52-54.75 58.75-54.75L58.75-54.75L58.75-54.75Q61.98-54.75 63.95-52.74L63.95-52.74L63.95-52.74Q65.91-50.74 65.91-47.82L65.91-47.82L65.91-47.82Q65.91-44.89 63.95-42.89L63.95-42.89L63.95-42.89Q61.98-40.89 58.75-40.89L58.75-40.89L58.75-40.89Q55.52-40.89 53.55-42.89L53.55-42.89L53.55-42.89Q51.59-44.89 51.59-47.82ZM65.30-31.42L65.30-0.08L65.30-0.08Q64.45 0.08 62.79 0.35L62.79 0.35L62.79 0.35Q61.14 0.62 59.44 0.62L59.44 0.62L59.44 0.62Q57.75 0.62 56.40 0.39L56.40 0.39L56.40 0.39Q55.05 0.15 54.13-0.54L54.13-0.54L54.13-0.54Q53.21-1.23 52.71-2.43L52.71-2.43L52.71-2.43Q52.21-3.62 52.21-5.54L52.21-5.54L52.21-36.88L52.21-36.88Q53.05-37.04 54.71-37.31L54.71-37.31L54.71-37.31Q56.36-37.58 58.06-37.58L58.06-37.58L58.06-37.58Q59.75-37.58 61.10-37.34L61.10-37.34L61.10-37.34Q62.45-37.11 63.37-36.42L63.37-36.42L63.37-36.42Q64.30-35.73 64.80-34.53L64.80-34.53L64.80-34.53Q65.30-33.34 65.30-31.42L65.30-31.42ZM72.00-18.71L72.00-18.71L72.00-18.71Q72.00-23.79 73.54-27.53L73.54-27.53L73.54-27.53Q75.08-31.26 77.81-33.73L77.81-33.73L77.81-33.73Q80.54-36.19 84.20-37.38L84.20-37.38L84.20-37.38Q87.86-38.58 92.09-38.58L92.09-38.58L92.09-38.58Q93.63-38.58 95.09-38.31L95.09-38.31L95.09-38.31Q96.56-38.04 97.48-37.65L97.48-37.65L97.48-50.13L97.48-50.13Q98.25-50.36 99.95-50.63L99.95-50.63L99.95-50.63Q101.64-50.90 103.41-50.90L103.41-50.90L103.41-50.90Q105.11-50.90 106.45-50.67L106.45-50.67L106.45-50.67Q107.80-50.44 108.72-49.74L108.72-49.74L108.72-49.74Q109.65-49.05 110.11-47.86L110.11-47.86L110.11-47.86Q110.57-46.66 110.57-44.74L110.57-44.74L110.57-8.24L110.57-8.24Q110.57-4.62 107.18-2.46L107.18-2.46L107.18-2.46Q104.95-1.00 101.41 0.12L101.41 0.12L101.41 0.12Q97.87 1.23 93.25 1.23L93.25 1.23L93.25 1.23Q88.24 1.23 84.28-0.15L84.28-0.15L84.28-0.15Q80.31-1.54 77.58-4.16L77.58-4.16L77.58-4.16Q74.84-6.78 73.42-10.43L73.42-10.43L73.42-10.43Q72.00-14.09 72.00-18.71ZM93.86-28.34L93.86-28.34L93.86-28.34Q89.71-28.34 87.47-25.95L87.47-25.95L87.47-25.95Q85.24-23.56 85.24-18.71L85.24-18.71L85.24-18.71Q85.24-13.94 87.32-11.51L87.32-11.51L87.32-11.51Q89.40-9.09 93.32-9.09L93.32-9.09L93.32-9.09Q94.71-9.09 95.83-9.51L95.83-9.51L95.83-9.51Q96.94-9.93 97.56-10.47L97.56-10.47L97.56-27.41L97.56-27.41Q96.02-28.34 93.86-28.34ZM138.52 1.23L138.52 1.23L138.52 1.23Q133.98 1.23 130.09-0.04L130.09-0.04L130.09-0.04Q126.20-1.31 123.32-3.85L123.32-3.85L123.32-3.85Q120.43-6.39 118.77-10.24L118.77-10.24L118.77-10.24Q117.12-14.09 117.12-19.25L117.12-19.25L117.12-19.25Q117.12-24.33 118.77-27.99L118.77-27.99L118.77-27.99Q120.43-31.65 123.12-34.00L123.12-34.00L123.12-34.00Q125.82-36.34 129.28-37.46L129.28-37.46L129.28-37.46Q132.75-38.58 136.37-38.58L136.37-38.58L136.37-38.58Q140.45-38.58 143.80-37.34L143.80-37.34L143.80-37.34Q147.15-36.11 149.57-33.96L149.57-33.96L149.57-33.96Q152.00-31.80 153.35-28.80L153.35-28.80L153.35-28.80Q154.69-25.79 154.69-22.25L154.69-22.25L154.69-22.25Q154.69-19.63 153.23-18.25L153.23-18.25L153.23-18.25Q151.77-16.86 149.15-16.48L149.15-16.48L130.13-13.63L130.13-13.63Q130.98-11.09 133.59-9.82L133.59-9.82L133.59-9.82Q136.21-8.55 139.60-8.55L139.60-8.55L139.60-8.55Q142.76-8.55 145.57-9.36L145.57-9.36L145.57-9.36Q148.38-10.16 150.15-11.24L150.15-11.24L150.15-11.24Q151.38-10.47 152.23-9.09L152.23-9.09L152.23-9.09Q153.08-7.70 153.08-6.16L153.08-6.16L153.08-6.16Q153.08-2.69 149.84-1.00L149.84-1.00L149.84-1.00Q147.38 0.31 144.30 0.77L144.30 0.77L144.30 0.77Q141.22 1.23 138.52 1.23ZM136.37-29.03L136.37-29.03L136.37-29.03Q134.52-29.03 133.17-28.41L133.17-28.41L133.17-28.41Q131.82-27.80 130.98-26.83L130.98-26.83L130.98-26.83Q130.13-25.87 129.71-24.68L129.71-24.68L129.71-24.68Q129.28-23.48 129.21-22.25L129.21-22.25L142.37-24.41L142.37-24.41Q142.14-25.95 140.68-27.49L140.68-27.49L140.68-27.49Q139.22-29.03 136.37-29.03ZM199.74-18.71L199.74-18.71L199.74-18.71Q199.74-13.94 198.27-10.20L198.27-10.20L198.27-10.20Q196.81-6.47 194.16-3.93L194.16-3.93L194.16-3.93Q191.50-1.39 187.80-0.08L187.80-0.08L187.80-0.08Q184.11 1.23 179.56 1.23L179.56 1.23L179.56 1.23Q175.02 1.23 171.32-0.15L171.32-0.15L171.32-0.15Q167.63-1.54 164.97-4.12L164.97-4.12L164.97-4.12Q162.32-6.70 160.85-10.39L160.85-10.39L160.85-10.39Q159.39-14.09 159.39-18.71L159.39-18.71L159.39-18.71Q159.39-23.25 160.85-26.95L160.85-26.95L160.85-26.95Q162.32-30.65 164.97-33.23L164.97-33.23L164.97-33.23Q167.63-35.80 171.32-37.19L171.32-37.19L171.32-37.19Q175.02-38.58 179.56-38.58L179.56-38.58L179.56-38.58Q184.11-38.58 187.80-37.15L187.80-37.15L187.80-37.15Q191.50-35.73 194.16-33.15L194.16-33.15L194.16-33.15Q196.81-30.57 198.27-26.87L198.27-26.87L198.27-26.87Q199.74-23.18 199.74-18.71ZM172.79-18.71L172.79-18.71L172.79-18.71Q172.79-14.01 174.60-11.51L174.60-11.51L174.60-11.51Q176.41-9.01 179.64-9.01L179.64-9.01L179.64-9.01Q182.88-9.01 184.61-11.55L184.61-11.55L184.61-11.55Q186.34-14.09 186.34-18.71L186.34-18.71L186.34-18.71Q186.34-23.33 184.57-25.83L184.57-25.83L184.57-25.83Q182.80-28.34 179.56-28.34L179.56-28.34L179.56-28.34Q176.33-28.34 174.56-25.83L174.56-25.83L174.56-25.83Q172.79-23.33 172.79-18.71ZM222.38-14.32L205.90-14.32L205.90-14.32Q205.36-15.17 204.90-16.55L204.90-16.55L204.90-16.55Q204.44-17.94 204.44-19.48L204.44-19.48L204.44-19.48Q204.44-22.33 205.74-23.60L205.74-23.60L205.74-23.60Q207.05-24.87 209.13-24.87L209.13-24.87L225.61-24.87L225.61-24.87Q226.07-24.02 226.57-22.64L226.57-22.64L226.57-22.64Q227.07-21.25 227.07-19.71L227.07-19.71L227.07-19.71Q227.07-16.86 225.76-15.59L225.76-15.59L225.76-15.59Q224.45-14.32 222.38-14.32L222.38-14.32ZM250.87-17.48L247.63-18.56L247.63-18.56Q244.24-19.71 241.47-20.91L241.47-20.91L241.47-20.91Q238.70-22.10 236.70-23.79L236.70-23.79L236.70-23.79Q234.70-25.49 233.58-27.84L233.58-27.84L233.58-27.84Q232.46-30.18 232.46-33.57L232.46-33.57L232.46-33.57Q232.46-40.12 237.51-44.04L237.51-44.04L237.51-44.04Q242.55-47.97 251.64-47.97L251.64-47.97L251.64-47.97Q254.95-47.97 257.80-47.51L257.80-47.51L257.80-47.51Q260.64-47.05 262.69-46.08L262.69-46.08L262.69-46.08Q264.73-45.12 265.88-43.62L265.88-43.62L265.88-43.62Q267.04-42.12 267.04-40.12L267.04-40.12L267.04-40.12Q267.04-38.12 266.11-36.69L266.11-36.69L266.11-36.69Q265.19-35.27 263.88-34.27L263.88-34.27L263.88-34.27Q262.19-35.34 259.34-36.15L259.34-36.15L259.34-36.15Q256.49-36.96 253.10-36.96L253.10-36.96L253.10-36.96Q249.63-36.96 248.02-36.00L248.02-36.00L248.02-36.00Q246.40-35.03 246.40-33.57L246.40-33.57L246.40-33.57Q246.40-32.42 247.40-31.69L247.40-31.69L247.40-31.69Q248.40-30.95 250.40-30.34L250.40-30.34L254.49-29.03L254.49-29.03Q261.72-26.72 265.61-23.14L265.61-23.14L265.61-23.14Q269.50-19.56 269.50-13.40L269.50-13.40L269.50-13.40Q269.50-6.85 264.34-2.81L264.34-2.81L264.34-2.81Q259.18 1.23 249.17 1.23L249.17 1.23L249.17 1.23Q245.63 1.23 242.59 0.65L242.59 0.65L242.59 0.65Q239.55 0.08 237.28-1.04L237.28-1.04L237.28-1.04Q235.00-2.16 233.73-3.81L233.73-3.81L233.73-3.81Q232.46-5.47 232.46-7.62L232.46-7.62L232.46-7.62Q232.46-9.86 233.77-11.43L233.77-11.43L233.77-11.43Q235.08-13.01 236.62-13.86L236.62-13.86L236.62-13.86Q238.78-12.17 241.90-10.93L241.90-10.93L241.90-10.93Q245.01-9.70 248.71-9.70L248.71-9.70L248.71-9.70Q252.48-9.70 254.02-10.86L254.02-10.86L254.02-10.86Q255.56-12.01 255.56-13.55L255.56-13.55L255.56-13.55Q255.56-15.09 254.33-15.90L254.33-15.90L254.33-15.90Q253.10-16.71 250.87-17.48L250.87-17.48ZM288.90-24.49L288.90-12.86L288.90-12.86Q288.90-10.86 290.17-10.01L290.17-10.01L290.17-10.01Q291.44-9.16 293.75-9.16L293.75-9.16L293.75-9.16Q294.91-9.16 296.14-9.36L296.14-9.36L296.14-9.36Q297.37-9.55 298.30-9.86L298.30-9.86L298.30-9.86Q298.99-9.01 299.49-7.97L299.49-7.97L299.49-7.97Q299.99-6.93 299.99-5.47L299.99-5.47L299.99-5.47Q299.99-2.54 297.80-0.69L297.80-0.69L297.80-0.69Q295.60 1.16 290.06 1.16L290.06 1.16L290.06 1.16Q283.28 1.16 279.63-1.93L279.63-1.93L279.63-1.93Q275.97-5.00 275.97-11.94L275.97-11.94L275.97-44.89L275.97-44.89Q276.81-45.12 278.39-45.39L278.39-45.39L278.39-45.39Q279.97-45.66 281.74-45.66L281.74-45.66L281.74-45.66Q285.13-45.66 287.02-44.47L287.02-44.47L287.02-44.47Q288.90-43.27 288.90-39.42L288.90-39.42L288.90-34.50L298.99-34.50L298.99-34.50Q299.45-33.65 299.88-32.38L299.88-32.38L299.88-32.38Q300.30-31.11 300.30-29.57L300.30-29.57L300.30-29.57Q300.30-26.87 299.11-25.68L299.11-25.68L299.11-25.68Q297.91-24.49 295.91-24.49L295.91-24.49L288.90-24.49ZM319.70-26.33L319.70-0.08L319.70-0.08Q318.93 0.15 317.28 0.39L317.28 0.39L317.28 0.39Q315.62 0.62 313.85 0.62L313.85 0.62L313.85 0.62Q312.16 0.62 310.81 0.39L310.81 0.39L310.81 0.39Q309.46 0.15 308.54-0.54L308.54-0.54L308.54-0.54Q307.62-1.23 307.11-2.43L307.11-2.43L307.11-2.43Q306.61-3.62 306.61-5.54L306.61-5.54L306.61-28.64L306.61-28.64Q306.61-30.41 307.27-31.69L307.27-31.69L307.27-31.69Q307.92-32.96 309.16-33.96L309.16-33.96L309.16-33.96Q310.39-34.96 312.20-35.77L312.20-35.77L312.20-35.77Q314.01-36.58 316.09-37.19L316.09-37.19L316.09-37.19Q318.16-37.81 320.40-38.15L320.40-38.15L320.40-38.15Q322.63-38.50 324.86-38.50L324.86-38.50L324.86-38.50Q328.56-38.50 330.72-37.08L330.72-37.08L330.72-37.08Q332.87-35.65 332.87-32.42L332.87-32.42L332.87-32.42Q332.87-31.34 332.56-30.30L332.56-30.30L332.56-30.30Q332.25-29.26 331.79-28.41L331.79-28.41L331.79-28.41Q330.18-28.41 328.48-28.26L328.48-28.26L328.48-28.26Q326.79-28.11 325.17-27.80L325.17-27.80L325.17-27.80Q323.55-27.49 322.13-27.14L322.13-27.14L322.13-27.14Q320.71-26.80 319.70-26.33L319.70-26.33ZM356.59 1.23L356.59 1.23L356.59 1.23Q352.04 1.23 348.16-0.04L348.16-0.04L348.16-0.04Q344.27-1.31 341.38-3.85L341.38-3.85L341.38-3.85Q338.49-6.39 336.84-10.24L336.84-10.24L336.84-10.24Q335.18-14.09 335.18-19.25L335.18-19.25L335.18-19.25Q335.18-24.33 336.84-27.99L336.84-27.99L336.84-27.99Q338.49-31.65 341.19-34.00L341.19-34.00L341.19-34.00Q343.88-36.34 347.35-37.46L347.35-37.46L347.35-37.46Q350.81-38.58 354.43-38.58L354.43-38.58L354.43-38.58Q358.51-38.58 361.86-37.34L361.86-37.34L361.86-37.34Q365.21-36.11 367.64-33.96L367.64-33.96L367.64-33.96Q370.06-31.80 371.41-28.80L371.41-28.80L371.41-28.80Q372.76-25.79 372.76-22.25L372.76-22.25L372.76-22.25Q372.76-19.63 371.29-18.25L371.29-18.25L371.29-18.25Q369.83-16.86 367.21-16.48L367.21-16.48L348.19-13.63L348.19-13.63Q349.04-11.09 351.66-9.82L351.66-9.82L351.66-9.82Q354.28-8.55 357.66-8.55L357.66-8.55L357.66-8.55Q360.82-8.55 363.63-9.36L363.63-9.36L363.63-9.36Q366.44-10.16 368.21-11.24L368.21-11.24L368.21-11.24Q369.45-10.47 370.29-9.09L370.29-9.09L370.29-9.09Q371.14-7.70 371.14-6.16L371.14-6.16L371.14-6.16Q371.14-2.69 367.91-1.00L367.91-1.00L367.91-1.00Q365.44 0.31 362.36 0.77L362.36 0.77L362.36 0.77Q359.28 1.23 356.59 1.23ZM354.43-29.03L354.43-29.03L354.43-29.03Q352.58-29.03 351.24-28.41L351.24-28.41L351.24-28.41Q349.89-27.80 349.04-26.83L349.04-26.83L349.04-26.83Q348.19-25.87 347.77-24.68L347.77-24.68L347.77-24.68Q347.35-23.48 347.27-22.25L347.27-22.25L360.44-24.41L360.44-24.41Q360.21-25.95 358.74-27.49L358.74-27.49L358.74-27.49Q357.28-29.03 354.43-29.03ZM395.09-8.32L395.09-8.32L395.09-8.32Q396.40-8.32 397.97-8.59L397.97-8.59L397.97-8.59Q399.55-8.86 400.32-9.32L400.32-9.32L400.32-15.48L394.78-15.02L394.78-15.02Q392.62-14.86 391.24-14.09L391.24-14.09L391.24-14.09Q389.85-13.32 389.85-11.78L389.85-11.78L389.85-11.78Q389.85-10.24 391.04-9.28L391.04-9.28L391.04-9.28Q392.24-8.32 395.09-8.32ZM394.47-38.58L394.47-38.58L394.47-38.58Q398.63-38.58 402.06-37.73L402.06-37.73L402.06-37.73Q405.48-36.88 407.91-35.15L407.91-35.15L407.91-35.15Q410.33-33.42 411.64-30.76L411.64-30.76L411.64-30.76Q412.95-28.11 412.95-24.49L412.95-24.49L412.95-7.24L412.95-7.24Q412.95-5.24 411.83-3.97L411.83-3.97L411.83-3.97Q410.72-2.69 409.18-1.77L409.18-1.77L409.18-1.77Q404.17 1.23 395.09 1.23L395.09 1.23L395.09 1.23Q391.01 1.23 387.73 0.46L387.73 0.46L387.73 0.46Q384.46-0.31 382.11-1.85L382.11-1.85L382.11-1.85Q379.76-3.39 378.49-5.78L378.49-5.78L378.49-5.78Q377.22-8.16 377.22-11.32L377.22-11.32L377.22-11.32Q377.22-16.63 380.38-19.48L380.38-19.48L380.38-19.48Q383.54-22.33 390.16-23.02L390.16-23.02L400.25-24.10L400.25-24.64L400.25-24.64Q400.25-26.87 398.28-27.84L398.28-27.84L398.28-27.84Q396.32-28.80 392.62-28.80L392.62-28.80L392.62-28.80Q389.70-28.80 386.93-28.18L386.93-28.18L386.93-28.18Q384.15-27.57 381.92-26.64L381.92-26.64L381.92-26.64Q380.92-27.34 380.23-28.76L380.23-28.76L380.23-28.76Q379.53-30.18 379.53-31.72L379.53-31.72L379.53-31.72Q379.53-33.73 380.50-34.92L380.50-34.92L380.50-34.92Q381.46-36.11 383.46-36.96L383.46-36.96L383.46-36.96Q385.69-37.81 388.73-38.19L388.73-38.19L388.73-38.19Q391.78-38.58 394.47-38.58ZM438.90-38.58L438.90-38.58L438.90-38.58Q442.06-38.58 445.10-37.69L445.10-37.69L445.10-37.69Q448.14-36.81 450.37-35.03L450.37-35.03L450.37-35.03Q452.68-36.58 455.57-37.58L455.57-37.58L455.57-37.58Q458.46-38.58 462.54-38.58L462.54-38.58L462.54-38.58Q465.46-38.58 468.28-37.81L468.28-37.81L468.28-37.81Q471.09-37.04 473.28-35.38L473.28-35.38L473.28-35.38Q475.47-33.73 476.78-30.99L476.78-30.99L476.78-30.99Q478.09-28.26 478.09-24.33L478.09-24.33L478.09-0.08L478.09-0.08Q477.32 0.15 475.67 0.39L475.67 0.39L475.67 0.39Q474.01 0.62 472.24 0.62L472.24 0.62L472.24 0.62Q470.55 0.62 469.20 0.39L469.20 0.39L469.20 0.39Q467.85 0.15 466.93-0.54L466.93-0.54L466.93-0.54Q466.00-1.23 465.50-2.43L465.50-2.43L465.50-2.43Q465.00-3.62 465.00-5.54L465.00-5.54L465.00-23.95L465.00-23.95Q465.00-26.26 463.69-27.30L463.69-27.30L463.69-27.30Q462.38-28.34 460.15-28.34L460.15-28.34L460.15-28.34Q459.07-28.34 457.84-27.84L457.84-27.84L457.84-27.84Q456.61-27.34 455.99-26.80L455.99-26.80L455.99-26.80Q456.07-26.49 456.07-26.22L456.07-26.22L456.07-26.22Q456.07-25.95 456.07-25.72L456.07-25.72L456.07-0.08L456.07-0.08Q455.22 0.15 453.57 0.39L453.57 0.39L453.57 0.39Q451.91 0.62 450.22 0.62L450.22 0.62L450.22 0.62Q448.52 0.62 447.18 0.39L447.18 0.39L447.18 0.39Q445.83 0.15 444.91-0.54L444.91-0.54L444.91-0.54Q443.98-1.23 443.48-2.43L443.48-2.43L443.48-2.43Q442.98-3.62 442.98-5.54L442.98-5.54L442.98-23.95L442.98-23.95Q442.98-26.26 441.56-27.30L441.56-27.30L441.56-27.30Q440.13-28.34 438.13-28.34L438.13-28.34L438.13-28.34Q436.74-28.34 435.74-27.91L435.74-27.91L435.74-27.91Q434.74-27.49 434.05-27.10L434.05-27.10L434.05-0.08L434.05-0.08Q433.28 0.15 431.62 0.39L431.62 0.39L431.62 0.39Q429.97 0.62 428.20 0.62L428.20 0.62L428.20 0.62Q426.50 0.62 425.16 0.39L425.16 0.39L425.16 0.39Q423.81 0.15 422.88-0.54L422.88-0.54L422.88-0.54Q421.96-1.23 421.46-2.43L421.46-2.43L421.46-2.43Q420.96-3.62 420.96-5.54L420.96-5.54L420.96-28.80L420.96-28.80Q420.96-30.88 421.84-32.11L421.84-32.11L421.84-32.11Q422.73-33.34 424.27-34.42L424.27-34.42L424.27-34.42Q426.89-36.27 430.78-37.42L430.78-37.42L430.78-37.42Q434.66-38.58 438.90-38.58Z" fill="url(#editing-gradient-gradient)"></path></g></g><style>text {
  font-size: 64px;
  font-family: Arial Black;
  dominant-baseline: central;
  text-anchor: middle;
}</style></svg>