<svg width="584.9200073242188px" height="105.9199981689453px" xmlns="http://www.w3.org/2000/svg" viewBox="-32.460003662109386 -7.959999084472656 564.9200073242188 165.9199981689453" style="background: rgba(0, 0, 0, 0);" preserveAspectRatio="xMidYMid"><defs><filter id="editing-hole" x="-100%" y="-100%" width="300%" height="300%"><feFlood flood-color="#000" result="black"></feFlood><feMorphology operator="dilate" radius="2" in="SourceGraphic" result="erode"></feMorphology><feGaussianBlur in="erode" stdDeviation="4" result="blur"></feGaussianBlur><feOffset in="blur" dx="2" dy="2" result="offset"></feOffset><feComposite operator="atop" in="offset" in2="black" result="merge"></feComposite><feComposite operator="in" in="merge" in2="SourceGraphic" result="inner-shadow"></feComposite></filter></defs><g filter="url(#editing-hole)"><g transform="translate(50.765018582344055, 98.26000213623047)"><path d="M27.39-1.28L27.39-1.28L27.39-1.28Q26.50-0.51 24.61 0.06L24.61 0.06L24.61 0.06Q22.72 0.64 20.48 0.64L20.48 0.64L20.48 0.64Q17.79 0.64 15.87-0.16L15.87-0.16L15.87-0.16Q13.95-0.96 13.25-2.37L13.25-2.37L13.25-2.37Q12.54-3.84 11.52-6.18L11.52-6.18L11.52-6.18Q10.50-8.51 9.38-11.39L9.38-11.39L9.38-11.39Q8.26-14.27 7.07-17.50L7.07-17.50L7.07-17.50Q5.89-20.74 4.80-24.06L4.80-24.06L4.80-24.06Q3.71-27.39 2.75-30.59L2.75-30.59L2.75-30.59Q1.79-33.79 1.09-36.61L1.09-36.61L1.09-36.61Q1.98-37.50 3.68-38.24L3.68-38.24L3.68-38.24Q5.38-38.98 7.30-38.98L7.30-38.98L7.30-38.98Q9.66-38.98 11.17-37.98L11.17-37.98L11.17-37.98Q12.67-36.99 13.38-34.30L13.38-34.30L13.38-34.30Q15.10-28.03 16.86-22.30L16.86-22.30L16.86-22.30Q18.62-16.58 20.54-10.37L20.54-10.37L20.93-10.37L20.93-10.37Q22.66-16.38 24.48-23.49L24.48-23.49L24.48-23.49Q26.30-30.59 27.97-37.63L27.97-37.63L27.97-37.63Q29.12-38.21 30.43-38.59L30.43-38.59L30.43-38.59Q31.74-38.98 33.41-38.98L33.41-38.98L33.41-38.98Q35.78-38.98 37.44-37.92L37.44-37.92L37.44-37.92Q39.10-36.86 39.10-34.43L39.10-34.43L39.10-34.43Q39.10-33.02 38.43-30.34L38.43-30.34L38.43-30.34Q37.76-27.65 36.70-24.29L36.70-24.29L36.70-24.29Q35.65-20.93 34.34-17.28L34.34-17.28L34.34-17.28Q33.02-13.63 31.71-10.40L31.71-10.40L31.71-10.40Q30.40-7.17 29.25-4.70L29.25-4.70L29.25-4.70Q28.10-2.24 27.39-1.28ZM42.88-39.74L42.88-39.74L42.88-39.74Q42.88-42.18 44.51-43.84L44.51-43.84L44.51-43.84Q46.14-45.50 48.83-45.50L48.83-45.50L48.83-45.50Q51.52-45.50 53.15-43.84L53.15-43.84L53.15-43.84Q54.78-42.18 54.78-39.74L54.78-39.74L54.78-39.74Q54.78-37.31 53.15-35.65L53.15-35.65L53.15-35.65Q51.52-33.98 48.83-33.98L48.83-33.98L48.83-33.98Q46.14-33.98 44.51-35.65L44.51-35.65L44.51-35.65Q42.88-37.31 42.88-39.74ZM54.27-26.11L54.27-0.06L54.27-0.06Q53.57 0.06 52.19 0.29L52.19 0.29L52.19 0.29Q50.82 0.51 49.41 0.51L49.41 0.51L49.41 0.51Q48 0.51 46.88 0.32L46.88 0.32L46.88 0.32Q45.76 0.13 44.99-0.45L44.99-0.45L44.99-0.45Q44.22-1.02 43.81-2.02L43.81-2.02L43.81-2.02Q43.39-3.01 43.39-4.61L43.39-4.61L43.39-30.66L43.39-30.66Q44.10-30.78 45.47-31.01L45.47-31.01L45.47-31.01Q46.85-31.23 48.26-31.23L48.26-31.23L48.26-31.23Q49.66-31.23 50.78-31.04L50.78-31.04L50.78-31.04Q51.90-30.85 52.67-30.27L52.67-30.27L52.67-30.27Q53.44-29.70 53.86-28.70L53.86-28.70L53.86-28.70Q54.27-27.71 54.27-26.11L54.27-26.11ZM59.84-15.55L59.84-15.55L59.84-15.55Q59.84-19.78 61.12-22.88L61.12-22.88L61.12-22.88Q62.40-25.98 64.67-28.03L64.67-28.03L64.67-28.03Q66.94-30.08 69.98-31.07L69.98-31.07L69.98-31.07Q73.02-32.06 76.54-32.06L76.54-32.06L76.54-32.06Q77.82-32.06 79.04-31.84L79.04-31.84L79.04-31.84Q80.26-31.62 81.02-31.30L81.02-31.30L81.02-41.66L81.02-41.66Q81.66-41.86 83.07-42.08L83.07-42.08L83.07-42.08Q84.48-42.30 85.95-42.30L85.95-42.30L85.95-42.30Q87.36-42.30 88.48-42.11L88.48-42.11L88.48-42.11Q89.60-41.92 90.37-41.34L90.37-41.34L90.37-41.34Q91.14-40.77 91.52-39.78L91.52-39.78L91.52-39.78Q91.90-38.78 91.90-37.18L91.90-37.18L91.90-6.85L91.90-6.85Q91.90-3.84 89.09-2.05L89.09-2.05L89.09-2.05Q87.23-0.83 84.29 0.10L84.29 0.10L84.29 0.10Q81.34 1.02 77.50 1.02L77.50 1.02L77.50 1.02Q73.34 1.02 70.05-0.13L70.05-0.13L70.05-0.13Q66.75-1.28 64.48-3.46L64.48-3.46L64.48-3.46Q62.21-5.63 61.02-8.67L61.02-8.67L61.02-8.67Q59.84-11.71 59.84-15.55ZM78.02-23.55L78.02-23.55L78.02-23.55Q74.56-23.55 72.70-21.57L72.70-21.57L72.70-21.57Q70.85-19.58 70.85-15.55L70.85-15.55L70.85-15.55Q70.85-11.58 72.58-9.57L72.58-9.57L72.58-9.57Q74.30-7.55 77.57-7.55L77.57-7.55L77.57-7.55Q78.72-7.55 79.65-7.90L79.65-7.90L79.65-7.90Q80.58-8.26 81.09-8.70L81.09-8.70L81.09-22.78L81.09-22.78Q79.81-23.55 78.02-23.55ZM115.14 1.02L115.14 1.02L115.14 1.02Q111.36 1.02 108.13-0.03L108.13-0.03L108.13-0.03Q104.90-1.09 102.50-3.20L102.50-3.20L102.50-3.20Q100.10-5.31 98.72-8.51L98.72-8.51L98.72-8.51Q97.34-11.71 97.34-16L97.34-16L97.34-16Q97.34-20.22 98.72-23.26L98.72-23.26L98.72-23.26Q100.10-26.30 102.34-28.26L102.34-28.26L102.34-28.26Q104.58-30.21 107.46-31.14L107.46-31.14L107.46-31.14Q110.34-32.06 113.34-32.06L113.34-32.06L113.34-32.06Q116.74-32.06 119.52-31.04L119.52-31.04L119.52-31.04Q122.30-30.02 124.32-28.22L124.32-28.22L124.32-28.22Q126.34-26.43 127.46-23.94L127.46-23.94L127.46-23.94Q128.58-21.44 128.58-18.50L128.58-18.50L128.58-18.50Q128.58-16.32 127.36-15.17L127.36-15.17L127.36-15.17Q126.14-14.02 123.97-13.70L123.97-13.70L108.16-11.33L108.16-11.33Q108.86-9.22 111.04-8.16L111.04-8.16L111.04-8.16Q113.22-7.10 116.03-7.10L116.03-7.10L116.03-7.10Q118.66-7.10 120.99-7.78L120.99-7.78L120.99-7.78Q123.33-8.45 124.80-9.34L124.80-9.34L124.80-9.34Q125.82-8.70 126.53-7.55L126.53-7.55L126.53-7.55Q127.23-6.40 127.23-5.12L127.23-5.12L127.23-5.12Q127.23-2.24 124.54-0.83L124.54-0.83L124.54-0.83Q122.50 0.26 119.94 0.64L119.94 0.64L119.94 0.64Q117.38 1.02 115.14 1.02ZM113.34-24.13L113.34-24.13L113.34-24.13Q111.81-24.13 110.69-23.62L110.69-23.62L110.69-23.62Q109.57-23.10 108.86-22.30L108.86-22.30L108.86-22.30Q108.16-21.50 107.81-20.51L107.81-20.51L107.81-20.51Q107.46-19.52 107.39-18.50L107.39-18.50L118.34-20.29L118.34-20.29Q118.14-21.57 116.93-22.85L116.93-22.85L116.93-22.85Q115.71-24.13 113.34-24.13ZM166.02-15.55L166.02-15.55L166.02-15.55Q166.02-11.58 164.80-8.48L164.80-8.48L164.80-8.48Q163.58-5.38 161.38-3.26L161.38-3.26L161.38-3.26Q159.17-1.15 156.10-0.06L156.10-0.06L156.10-0.06Q153.02 1.02 149.25 1.02L149.25 1.02L149.25 1.02Q145.47 1.02 142.40-0.13L142.40-0.13L142.40-0.13Q139.33-1.28 137.12-3.42L137.12-3.42L137.12-3.42Q134.91-5.57 133.70-8.64L133.70-8.64L133.70-8.64Q132.48-11.71 132.48-15.55L132.48-15.55L132.48-15.55Q132.48-19.33 133.70-22.40L133.70-22.40L133.70-22.40Q134.91-25.47 137.12-27.62L137.12-27.62L137.12-27.62Q139.33-29.76 142.40-30.91L142.40-30.91L142.40-30.91Q145.47-32.06 149.25-32.06L149.25-32.06L149.25-32.06Q153.02-32.06 156.10-30.88L156.10-30.88L156.10-30.88Q159.17-29.70 161.38-27.55L161.38-27.55L161.38-27.55Q163.58-25.41 164.80-22.34L164.80-22.34L164.80-22.34Q166.02-19.26 166.02-15.55ZM143.62-15.55L143.62-15.55L143.62-15.55Q143.62-11.65 145.12-9.57L145.12-9.57L145.12-9.57Q146.62-7.49 149.31-7.49L149.31-7.49L149.31-7.49Q152-7.49 153.44-9.60L153.44-9.60L153.44-9.60Q154.88-11.71 154.88-15.55L154.88-15.55L154.88-15.55Q154.88-19.39 153.41-21.47L153.41-21.47L153.41-21.47Q151.94-23.55 149.25-23.55L149.25-23.55L149.25-23.55Q146.56-23.55 145.09-21.47L145.09-21.47L145.09-21.47Q143.62-19.39 143.62-15.55ZM184.83-11.90L171.14-11.90L171.14-11.90Q170.69-12.61 170.30-13.76L170.30-13.76L170.30-13.76Q169.92-14.91 169.92-16.19L169.92-16.19L169.92-16.19Q169.92-18.56 171.01-19.62L171.01-19.62L171.01-19.62Q172.10-20.67 173.82-20.67L173.82-20.67L187.52-20.67L187.52-20.67Q187.90-19.97 188.32-18.82L188.32-18.82L188.32-18.82Q188.74-17.66 188.74-16.38L188.74-16.38L188.74-16.38Q188.74-14.02 187.65-12.96L187.65-12.96L187.65-12.96Q186.56-11.90 184.83-11.90L184.83-11.90ZM208.51-14.53L205.82-15.42L205.82-15.42Q203.01-16.38 200.70-17.38L200.70-17.38L200.70-17.38Q198.40-18.37 196.74-19.78L196.74-19.78L196.74-19.78Q195.07-21.18 194.14-23.14L194.14-23.14L194.14-23.14Q193.22-25.09 193.22-27.90L193.22-27.90L193.22-27.90Q193.22-33.34 197.41-36.61L197.41-36.61L197.41-36.61Q201.60-39.87 209.15-39.87L209.15-39.87L209.15-39.87Q211.90-39.87 214.27-39.49L214.27-39.49L214.27-39.49Q216.64-39.10 218.34-38.30L218.34-38.30L218.34-38.30Q220.03-37.50 220.99-36.26L220.99-36.26L220.99-36.26Q221.95-35.01 221.95-33.34L221.95-33.34L221.95-33.34Q221.95-31.68 221.18-30.50L221.18-30.50L221.18-30.50Q220.42-29.31 219.33-28.48L219.33-28.48L219.33-28.48Q217.92-29.38 215.55-30.05L215.55-30.05L215.55-30.05Q213.18-30.72 210.37-30.72L210.37-30.72L210.37-30.72Q207.49-30.72 206.14-29.92L206.14-29.92L206.14-29.92Q204.80-29.12 204.80-27.90L204.80-27.90L204.80-27.90Q204.80-26.94 205.63-26.34L205.63-26.34L205.63-26.34Q206.46-25.73 208.13-25.22L208.13-25.22L211.52-24.13L211.52-24.13Q217.54-22.21 220.77-19.23L220.77-19.23L220.77-19.23Q224-16.26 224-11.14L224-11.14L224-11.14Q224-5.70 219.71-2.34L219.71-2.34L219.71-2.34Q215.42 1.02 207.10 1.02L207.10 1.02L207.10 1.02Q204.16 1.02 201.63 0.54L201.63 0.54L201.63 0.54Q199.10 0.06 197.22-0.86L197.22-0.86L197.22-0.86Q195.33-1.79 194.27-3.17L194.27-3.17L194.27-3.17Q193.22-4.54 193.22-6.34L193.22-6.34L193.22-6.34Q193.22-8.19 194.30-9.50L194.30-9.50L194.30-9.50Q195.39-10.82 196.67-11.52L196.67-11.52L196.67-11.52Q198.46-10.11 201.06-9.09L201.06-9.09L201.06-9.09Q203.65-8.06 206.72-8.06L206.72-8.06L206.72-8.06Q209.86-8.06 211.14-9.02L211.14-9.02L211.14-9.02Q212.42-9.98 212.42-11.26L212.42-11.26L212.42-11.26Q212.42-12.54 211.39-13.22L211.39-13.22L211.39-13.22Q210.37-13.89 208.51-14.53L208.51-14.53ZM240.13-20.35L240.13-10.69L240.13-10.69Q240.13-9.02 241.18-8.32L241.18-8.32L241.18-8.32Q242.24-7.62 244.16-7.62L244.16-7.62L244.16-7.62Q245.12-7.62 246.14-7.78L246.14-7.78L246.14-7.78Q247.17-7.94 247.94-8.19L247.94-8.19L247.94-8.19Q248.51-7.49 248.93-6.62L248.93-6.62L248.93-6.62Q249.34-5.76 249.34-4.54L249.34-4.54L249.34-4.54Q249.34-2.11 247.52-0.58L247.52-0.58L247.52-0.58Q245.70 0.96 241.09 0.96L241.09 0.96L241.09 0.96Q235.46 0.96 232.42-1.60L232.42-1.60L232.42-1.60Q229.38-4.16 229.38-9.92L229.38-9.92L229.38-37.31L229.38-37.31Q230.08-37.50 231.39-37.73L231.39-37.73L231.39-37.73Q232.70-37.95 234.18-37.95L234.18-37.95L234.18-37.95Q236.99-37.95 238.56-36.96L238.56-36.96L238.56-36.96Q240.13-35.97 240.13-32.77L240.13-32.77L240.13-28.67L248.51-28.67L248.51-28.67Q248.90-27.97 249.25-26.91L249.25-26.91L249.25-26.91Q249.60-25.86 249.60-24.58L249.60-24.58L249.60-24.58Q249.60-22.34 248.61-21.34L248.61-21.34L248.61-21.34Q247.62-20.35 245.95-20.35L245.95-20.35L240.13-20.35ZM265.73-21.89L265.73-0.06L265.73-0.06Q265.09 0.13 263.71 0.32L263.71 0.32L263.71 0.32Q262.34 0.51 260.86 0.51L260.86 0.51L260.86 0.51Q259.46 0.51 258.34 0.32L258.34 0.32L258.34 0.32Q257.22 0.13 256.45-0.45L256.45-0.45L256.45-0.45Q255.68-1.02 255.26-2.02L255.26-2.02L255.26-2.02Q254.85-3.01 254.85-4.61L254.85-4.61L254.85-23.81L254.85-23.81Q254.85-25.28 255.39-26.34L255.39-26.34L255.39-26.34Q255.94-27.39 256.96-28.22L256.96-28.22L256.96-28.22Q257.98-29.06 259.49-29.73L259.49-29.73L259.49-29.73Q260.99-30.40 262.72-30.91L262.72-30.91L262.72-30.91Q264.45-31.42 266.30-31.71L266.30-31.71L266.30-31.71Q268.16-32 270.02-32L270.02-32L270.02-32Q273.09-32 274.88-30.82L274.88-30.82L274.88-30.82Q276.67-29.63 276.67-26.94L276.67-26.94L276.67-26.94Q276.67-26.05 276.42-25.18L276.42-25.18L276.42-25.18Q276.16-24.32 275.78-23.62L275.78-23.62L275.78-23.62Q274.43-23.62 273.02-23.49L273.02-23.49L273.02-23.49Q271.62-23.36 270.27-23.10L270.27-23.10L270.27-23.10Q268.93-22.85 267.74-22.56L267.74-22.56L267.74-22.56Q266.56-22.27 265.73-21.89L265.73-21.89ZM296.38 1.02L296.38 1.02L296.38 1.02Q292.61 1.02 289.38-0.03L289.38-0.03L289.38-0.03Q286.14-1.09 283.74-3.20L283.74-3.20L283.74-3.20Q281.34-5.31 279.97-8.51L279.97-8.51L279.97-8.51Q278.59-11.71 278.59-16L278.59-16L278.59-16Q278.59-20.22 279.97-23.26L279.97-23.26L279.97-23.26Q281.34-26.30 283.58-28.26L283.58-28.26L283.58-28.26Q285.82-30.21 288.70-31.14L288.70-31.14L288.70-31.14Q291.58-32.06 294.59-32.06L294.59-32.06L294.59-32.06Q297.98-32.06 300.77-31.04L300.77-31.04L300.77-31.04Q303.55-30.02 305.57-28.22L305.57-28.22L305.57-28.22Q307.58-26.43 308.70-23.94L308.70-23.94L308.70-23.94Q309.82-21.44 309.82-18.50L309.82-18.50L309.82-18.50Q309.82-16.32 308.61-15.17L308.61-15.17L308.61-15.17Q307.39-14.02 305.22-13.70L305.22-13.70L289.41-11.33L289.41-11.33Q290.11-9.22 292.29-8.16L292.29-8.16L292.29-8.16Q294.46-7.10 297.28-7.10L297.28-7.10L297.28-7.10Q299.90-7.10 302.24-7.78L302.24-7.78L302.24-7.78Q304.58-8.45 306.05-9.34L306.05-9.34L306.05-9.34Q307.07-8.70 307.78-7.55L307.78-7.55L307.78-7.55Q308.48-6.40 308.48-5.12L308.48-5.12L308.48-5.12Q308.48-2.24 305.79-0.83L305.79-0.83L305.79-0.83Q303.74 0.26 301.18 0.64L301.18 0.64L301.18 0.64Q298.62 1.02 296.38 1.02ZM294.59-24.13L294.59-24.13L294.59-24.13Q293.06-24.13 291.94-23.62L291.94-23.62L291.94-23.62Q290.82-23.10 290.11-22.30L290.11-22.30L290.11-22.30Q289.41-21.50 289.06-20.51L289.06-20.51L289.06-20.51Q288.70-19.52 288.64-18.50L288.64-18.50L299.58-20.29L299.58-20.29Q299.39-21.57 298.18-22.85L298.18-22.85L298.18-22.85Q296.96-24.13 294.59-24.13ZM328.38-6.91L328.38-6.91L328.38-6.91Q329.47-6.91 330.78-7.14L330.78-7.14L330.78-7.14Q332.10-7.36 332.74-7.74L332.74-7.74L332.74-12.86L328.13-12.48L328.13-12.48Q326.34-12.35 325.18-11.71L325.18-11.71L325.18-11.71Q324.03-11.07 324.03-9.79L324.03-9.79L324.03-9.79Q324.03-8.51 325.02-7.71L325.02-7.71L325.02-7.71Q326.02-6.91 328.38-6.91ZM327.87-32.06L327.87-32.06L327.87-32.06Q331.33-32.06 334.18-31.36L334.18-31.36L334.18-31.36Q337.02-30.66 339.04-29.22L339.04-29.22L339.04-29.22Q341.06-27.78 342.14-25.57L342.14-25.57L342.14-25.57Q343.23-23.36 343.23-20.35L343.23-20.35L343.23-6.02L343.23-6.02Q343.23-4.35 342.30-3.30L342.30-3.30L342.30-3.30Q341.38-2.24 340.10-1.47L340.10-1.47L340.10-1.47Q335.94 1.02 328.38 1.02L328.38 1.02L328.38 1.02Q324.99 1.02 322.27 0.38L322.27 0.38L322.27 0.38Q319.55-0.26 317.60-1.54L317.60-1.54L317.60-1.54Q315.65-2.82 314.59-4.80L314.59-4.80L314.59-4.80Q313.54-6.78 313.54-9.41L313.54-9.41L313.54-9.41Q313.54-13.82 316.16-16.19L316.16-16.19L316.16-16.19Q318.78-18.56 324.29-19.14L324.29-19.14L332.67-20.03L332.67-20.48L332.67-20.48Q332.67-22.34 331.04-23.14L331.04-23.14L331.04-23.14Q329.41-23.94 326.34-23.94L326.34-23.94L326.34-23.94Q323.90-23.94 321.60-23.42L321.60-23.42L321.60-23.42Q319.30-22.91 317.44-22.14L317.44-22.14L317.44-22.14Q316.61-22.72 316.03-23.90L316.03-23.90L316.03-23.90Q315.46-25.09 315.46-26.37L315.46-26.37L315.46-26.37Q315.46-28.03 316.26-29.02L316.26-29.02L316.26-29.02Q317.06-30.02 318.72-30.72L318.72-30.72L318.72-30.72Q320.58-31.42 323.10-31.74L323.10-31.74L323.10-31.74Q325.63-32.06 327.87-32.06ZM364.80-32.06L364.80-32.06L364.80-32.06Q367.42-32.06 369.95-31.33L369.95-31.33L369.95-31.33Q372.48-30.59 374.34-29.12L374.34-29.12L374.34-29.12Q376.26-30.40 378.66-31.23L378.66-31.23L378.66-31.23Q381.06-32.06 384.45-32.06L384.45-32.06L384.45-32.06Q386.88-32.06 389.22-31.42L389.22-31.42L389.22-31.42Q391.55-30.78 393.38-29.41L393.38-29.41L393.38-29.41Q395.20-28.03 396.29-25.76L396.29-25.76L396.29-25.76Q397.38-23.49 397.38-20.22L397.38-20.22L397.38-0.06L397.38-0.06Q396.74 0.13 395.36 0.32L395.36 0.32L395.36 0.32Q393.98 0.51 392.51 0.51L392.51 0.51L392.51 0.51Q391.10 0.51 389.98 0.32L389.98 0.32L389.98 0.32Q388.86 0.13 388.10-0.45L388.10-0.45L388.10-0.45Q387.33-1.02 386.91-2.02L386.91-2.02L386.91-2.02Q386.50-3.01 386.50-4.61L386.50-4.61L386.50-19.90L386.50-19.90Q386.50-21.82 385.41-22.69L385.41-22.69L385.41-22.69Q384.32-23.55 382.46-23.55L382.46-23.55L382.46-23.55Q381.57-23.55 380.54-23.14L380.54-23.14L380.54-23.14Q379.52-22.72 379.01-22.27L379.01-22.27L379.01-22.27Q379.07-22.02 379.07-21.79L379.07-21.79L379.07-21.79Q379.07-21.57 379.07-21.38L379.07-21.38L379.07-0.06L379.07-0.06Q378.37 0.13 376.99 0.32L376.99 0.32L376.99 0.32Q375.62 0.51 374.21 0.51L374.21 0.51L374.21 0.51Q372.80 0.51 371.68 0.32L371.68 0.32L371.68 0.32Q370.56 0.13 369.79-0.45L369.79-0.45L369.79-0.45Q369.02-1.02 368.61-2.02L368.61-2.02L368.61-2.02Q368.19-3.01 368.19-4.61L368.19-4.61L368.19-19.90L368.19-19.90Q368.19-21.82 367.01-22.69L367.01-22.69L367.01-22.69Q365.82-23.55 364.16-23.55L364.16-23.55L364.16-23.55Q363.01-23.55 362.18-23.20L362.18-23.20L362.18-23.20Q361.34-22.85 360.77-22.53L360.77-22.53L360.77-0.06L360.77-0.06Q360.13 0.13 358.75 0.32L358.75 0.32L358.75 0.32Q357.38 0.51 355.90 0.51L355.90 0.51L355.90 0.51Q354.50 0.51 353.38 0.32L353.38 0.32L353.38 0.32Q352.26 0.13 351.49-0.45L351.49-0.45L351.49-0.45Q350.72-1.02 350.30-2.02L350.30-2.02L350.30-2.02Q349.89-3.01 349.89-4.61L349.89-4.61L349.89-23.94L349.89-23.94Q349.89-25.66 350.62-26.69L350.62-26.69L350.62-26.69Q351.36-27.71 352.64-28.61L352.64-28.61L352.64-28.61Q354.82-30.14 358.05-31.10L358.05-31.10L358.05-31.10Q361.28-32.06 364.80-32.06Z" fill="#ccc"></path></g></g><style>text {
  font-size: 64px;
  font-family: Arial Black;
  dominant-baseline: central;
  text-anchor: middle;
}</style></svg>